# xmcd
#
# Track frame offsets:
#	150
#	17788
#	36365
#	52146
#	77620
#	98131
#	107509
#	127201
#	151462
#	170257
#
# Disc length: 2588 seconds
#
# Revision: 0
# Processed by: cddbd v1.5.2PL0 Copyright (c) Steve Scherf et al.
# Submitted via: dBpowerAMP V4.0
#
DISCID=7e0a1a0a
DTITLE=Jarle Bernhoft - Ceramik City Chronicles
DYEAR=2008
DGENRE=Funk
TTITLE0=On Time
TTITLE1=So Many Faces
TTITLE2=Streetlights
TTITLE3=Sunday
TTITLE4=Fly away
TTITLE5=On Individuality
TTITLE6=In The Street Where The World Passes Me By
TTITLE7=Prayer To A Landlord
TTITLE8=Rats and Raccoons
TTITLE9=Firm and Deep
EXTD=
EXTT0=
EXTT1=
EXTT2=
EXTT3=
EXTT4=
EXTT5=
EXTT6=
EXTT7=
EXTT8=
EXTT9=
PLAYORDER=
